<svg width="30" height="30" viewBox="0 0 30 30" fill="none" xmlns="http://www.w3.org/2000/svg">
<path fill-rule="evenodd" clip-rule="evenodd" d="M11.3118 25.6587V21.8703C11.3118 20.9068 12.0973 20.1238 13.0706 20.1174H16.6358C17.6137 20.1174 18.4065 20.9022 18.4065 21.8703V25.6704C18.4062 26.4885 19.0658 27.1572 19.8919 27.1763H22.2687C24.6381 27.1763 26.5588 25.2748 26.5588 22.9292V12.1525C26.5461 11.2297 26.1085 10.3632 25.3704 9.7995L17.2419 3.31701C15.8178 2.18828 13.7935 2.18828 12.3695 3.31701L4.27658 9.81126C3.53569 10.3727 3.09732 11.2406 3.0882 12.1643V22.9292C3.0882 25.2748 5.00892 27.1763 7.37826 27.1763H9.75503C10.6017 27.1763 11.288 26.4969 11.288 25.6587" fill="white"/>
<path d="M11.3118 25.6587V21.8703C11.3118 20.9068 12.0973 20.1238 13.0706 20.1174H16.6358C17.6137 20.1174 18.4065 20.9022 18.4065 21.8703V21.8703V25.6704C18.4062 26.4885 19.0658 27.1572 19.8919 27.1763H22.2687C24.6381 27.1763 26.5588 25.2748 26.5588 22.9292V22.9292V12.1525C26.5461 11.2297 26.1085 10.3632 25.3704 9.7995L17.2419 3.31701C15.8178 2.18828 13.7935 2.18828 12.3695 3.31701L4.27658 9.81126C3.53569 10.3727 3.09732 11.2406 3.0882 12.1643V22.9292C3.0882 25.2748 5.00892 27.1763 7.37826 27.1763H9.75503C10.6017 27.1763 11.288 26.4969 11.288 25.6587V25.6587" stroke="#98614A" stroke-width="1.58824" stroke-linecap="round" stroke-linejoin="round"/>
</svg>
